EMG
version=1
nRows=20
nColumns=17
inDegrees=no
endheader
time	_right_gast_med	_right_glut_max	_left_gast_med	_left_glut_max	_right_glut_med	_right_bic_fem	_right_rect_fem	_right_vast_lat	_right_vast_med	_right_tens_fasc_lat	_left_glut_med	_left_bic_fem	_left_rect_fem	_left_vast_lat	_left_vast_med	_left_tens_fasc_lat
      0.00000000	      0.72230977	      0.04926061	      0.05546585	     -0.06563838	     -0.01472922	     -0.00810953	      0.01472591	      0.05713498	      0.43527251	     -0.01852108	     -0.01226888	     -0.05391817	      0.01876535	      0.00382793	      0.03368368	      0.03814391
      0.01000000	     -0.42937881	      0.00039589	      0.05871676	     -0.06765794	     -0.00083023	      0.01759693	      0.00730065	      0.10956349	      0.43599164	      0.01798310	     -0.00861232	     -0.03444267	      0.01295736	      0.03298814	      0.02582246	      0.02374372
      0.02000000	      0.08725262	      0.00270207	     -0.00716790	     -0.06301273	      0.01520434	      0.02250058	      0.01323415	      0.11657068	      0.34658203	      0.04943717	      0.01246575	     -0.00309186	      0.00738121	      0.04755070	      0.01326270	      0.02282701
      0.03000000	      1.33827662	      0.02628032	     -0.07083422	     -0.02466749	      0.01780318	      0.00736971	      0.02996708	      0.05286052	      0.20184360	      0.05760922	      0.02995422	      0.02788026	     -0.00458342	      0.06489641	      0.03060320	      0.01964562
      0.04000000	      1.35077214	      0.07684363	     -0.05014773	      0.02589623	      0.01795590	     -0.01168000	      0.03983185	     -0.04817157	      0.06242762	      0.04635707	      0.03696140	      0.05003582	     -0.01942115	      0.06987723	      0.04520352	      0.01519118
      0.05000000	      1.10060930	      0.17107022	      0.03373075	      0.03329713	      0.01912239	     -0.00472228	      0.02180592	     -0.12983185	      0.00300411	      0.03476431	      0.04866284	      0.05290919	     -0.01746719	      0.04031870	     -0.05162767	      0.02638693
      0.06000000	      1.37619138	      0.20684297	      0.07197146	      0.02209743	     -0.00195051	      0.04208896	     -0.01766756	     -0.15268713	      0.00310620	      0.03001322	      0.06485870	      0.03679478	      0.01183162	      0.00044401	     -0.22000423	      0.04806434
      0.07000000	      1.37245536	      0.02637588	      0.02226967	      0.04505840	     -0.04373499	      0.08594362	     -0.03709929	     -0.12048397	      0.00610870	      0.01956604	      0.05722922	      0.03778414	      0.04725807	      0.00572780	     -0.20248522	      0.04825057
      0.08000000	      0.34300479	     -0.28079650	     -0.04028722	      0.08497082	     -0.06870437	      0.08050086	     -0.00972074	     -0.06628347	      0.00534128	     -0.01044979	      0.01133621	      0.04320762	      0.06628379	      0.06074885	      0.05836429	      0.01182306
      0.09000000	     -1.48882139	     -0.44181472	     -0.03583034	      0.10761489	     -0.06244426	      0.03531758	      0.03699963	     -0.02291883	      0.02187252	     -0.05906540	     -0.03287416	      0.01029734	      0.04350830	      0.10009646	      0.26929966	     -0.03773705
      0.10000000	     -2.71735620	     -0.36940074	      0.01093295	      0.09922967	     -0.05541601	     -0.00938387	      0.03678064	     -0.00418113	      0.05438202	     -0.06304566	     -0.02954859	     -0.03093848	     -0.01988902	      0.07972842	      0.24660736	     -0.07139751
      0.11000000	     -2.44511271	     -0.20473011	      0.05678238	      0.07276925	     -0.06706343	     -0.02032725	     -0.02198993	      0.00635999	      0.07719158	      0.01153597	     -0.02372505	     -0.03242526	     -0.04775895	      0.02984263	      0.07910866	     -0.07110408
      0.12000000	     -1.38192046	     -0.08281319	      0.07879305	      0.04306543	     -0.08147287	     -0.00135726	     -0.05970368	      0.02511692	      0.07631636	      0.05240742	     -0.05235131	      0.00597645	     -0.01496735	      0.01810672	     -0.02404452	     -0.03758653
      0.13000000	     -0.39338559	     -0.01307992	      0.03094998	     -0.02655852	     -0.06418719	      0.01122607	     -0.03721850	      0.03612738	      0.06299130	      0.00148921	     -0.02544689	      0.05201894	      0.01612425	      0.07016407	      0.09503718	     -0.01105927
      0.14000000	      0.23411170	     -0.02494248	     -0.03425397	     -0.10333060	      0.01141749	      0.00366472	      0.00453966	      0.02698761	      0.05106668	     -0.04397093	      0.03223740	      0.03237236	      0.01974128	      0.10409241	      0.23378342	     -0.03025959
      0.15000000	      0.48692533	     -0.19831027	     -0.02693671	     -0.06158961	      0.09721915	     -0.00912886	      0.03669010	      0.01679151	      0.04189988	     -0.03137783	     -0.02168000	     -0.05356367	      0.00853178	      0.02874292	      0.13008897	     -0.03431296
      0.16000000	      0.51386750	     -0.24480255	      0.02213908	      0.01365886	      0.11640207	     -0.01827455	      0.05127162	      0.02708461	      0.03217568	      0.00089696	     -0.07134388	     -0.05318793	     -0.01309065	     -0.02338365	     -0.06778688	      0.00230033
      0.17000000	      0.46091497	      0.21958010	      0.07412485	     -0.03472372	      0.08186434	     -0.01880715	      0.04280169	      0.06198081	      0.02433831	      0.02113977	      0.02664140	      0.05754996	     -0.00976661	      0.11129764	     -0.15024205	     -0.02086286
      0.18000000	      0.38309419	      0.66773045	      0.07486749	     -0.04635158	      0.04737332	     -0.00473755	      0.02737036	      0.09788321	      0.03417511	      0.02884834	      0.13608918	      0.12047490	      0.01297086	      0.23792981	     -0.10280774	     -0.06155870
      0.19000000	      0.30746818	      0.51057553	     -0.00407918	      0.08863092	      0.03286903	      0.01760134	      0.02351548	      0.09456196	      0.06822504	      0.04036202	      0.11993921	      0.07892879	     -0.02275237	      0.13104977	     -0.02832691	     -0.01007603
